<?xml version="1.0" encoding="utf-8"?>
<svg viewBox="63.914 64.064 356.44 360.375" xmlns="http://www.w3.org/2000/svg">
  <path style="fill: #d5d5d5; stroke: none; opacity: 1;" d="M 158.643 349.967 L 87.11 350.435 L 87.11 405.15 L 220.003 405.15 C 219.913 390.361 223.124 357.105 220.859 348.161 C 220.156 345.384 197.49 324.424 192.634 319.124 C 170.281 294.723 152.348 265.734 150.832 233.108 C 146.747 145.297 239.4 73.178 307.871 148.712 C 318.794 160.762 325.952 175.555 331.123 190.907 C 345.135 232.521 341.264 268.396 314.689 302.883 C 308.898 310.399 278.889 339.238 269.426 345.888 C 263.987 349.711 264.881 349.782 265.089 385.82 C 265.134 393.661 265.659 400.916 265.282 405.52 L 397.171 405.844 L 395.911 351.002 L 330.973 349.967 C 358.072 325.912 384.508 301.734 394.412 265.569 C 401.068 241.238 401.656 212.466 397.254 187.661 C 365.507 8.682 88.068 26.717 87.112 210.384 C 86.979 235.834 89.174 257.884 98.637 281.797 C 110.213 311.068 133.999 331.73 158.643 349.967 Z"/>
</svg>