<?xml version="1.0" standalone="no"?>
<!DOCTYPE svg PUBLIC "-//W3C//DTD SVG 20010904//EN"
 "http://www.w3.org/TR/2001/REC-SVG-20010904/DTD/svg10.dtd">
<svg fill="#d5d5d5" version="1.0" xmlns="http://www.w3.org/2000/svg"
 width="512.000000pt" height="512.000000pt" viewBox="0 0 500.000000 455.000000"
 preserveAspectRatio="xMidYMid meet">

<g transform="translate(-30.000000,512.000000) scale(0.111000,-0.111000)" stroke="none">
<path  d="M2309 4790 c-633 -121 -1099 -677 -1099 -1312 0 -114 4 -151 29 -253
58 -232 131 -415 321 -800 140 -285 318 -605 517 -930 191 -313 471 -745 483
-745 5 0 75 102 156 228 81 125 162 250 180 277 274 422 686 1176 833 1525 67
158 134 358 161 480 31 137 25 370 -14 518 -67 257 -180 456 -361 638 -199
199 -435 323 -713 374 -138 26 -357 26 -493 0z m426 -665 c153 -41 329 -172
410 -305 243 -399 30 -915 -424 -1029 -333 -83 -682 104 -805 432 -72 190 -49
419 58 596 39 63 148 173 216 218 157 103 363 136 545 88z"/>
<path d="M1465 1734 c-515 -150 -785 -372 -785 -649 0 -375 550 -667 1421
-755 791 -79 1659 60 2064 333 96 64 198 174 236 253 84 176 33 371 -139 525
-77 69 -225 154 -363 209 -128 51 -357 120 -395 120 -17 0 -36 -25 -88 -116
-37 -64 -65 -118 -62 -121 3 -4 65 -21 138 -39 428 -108 701 -281 674 -428 -9
-49 -91 -135 -179 -190 -207 -129 -529 -220 -967 -273 -205 -25 -716 -25 -920
0 -551 67 -933 199 -1094 378 -25 28 -48 65 -51 83 -16 83 75 187 241 273 128
67 234 106 417 152 81 21 150 41 153 44 3 3 -16 43 -44 89 -27 46 -57 98 -66
116 -21 41 -36 41 -191 -4z"/>
</g>
</svg>
