<?xml version="1.0" encoding="iso-8859-1"?>
<!-- Generator: Adobe Illustrator 19.0.0, SVG Export Plug-In . SVG Version: 6.00 Build 0)  -->
<svg fill="#d5d5d5" version="1.1" id="Layer_1" xmlns="http://www.w3.org/2000/svg" x="0px" y="0px"
	 viewBox="0 0 367.647 367.647" style="enable-background:new 0 0 367.647 367.647;" xml:space="preserve">
<g>
	<rect x="98.576" y="91.454" width="170.495" height="85.24"/>
	<path d="M56.748,290.102h25.828v-24.06c0-4.418,3.582-8,8-8h186.495c4.418,0,8,3.582,8,8v24.06h25.828v-51.316H56.748V290.102z"/>
	<path d="M82.576,83.454c0-4.418,3.582-8,8-8h186.495c4.418,0,8,3.582,8,8v4.166h31.299V33.687
		c0-13.962-11.359-25.321-25.321-25.321h-0.673c-13.962,0-25.321,11.359-25.321,25.321v9.307c0,4.418-3.582,8-8,8H110.593
		c-4.418,0-8-3.582-8-8v-9.307c0-13.962-11.359-25.321-25.321-25.321h-0.673c-13.962,0-25.321,11.359-25.321,25.321V87.62h31.299
		V83.454z"/>
	<path d="M98.576,359.282h170.495v-85.24H98.576V359.282z M126.942,293.12h113.763c4.418,0,8,3.582,8,8s-3.582,8-8,8H126.942
		c-4.418,0-8-3.582-8-8S122.524,293.12,126.942,293.12z M126.942,324.025h113.763c4.418,0,8,3.582,8,8s-3.582,8-8,8H126.942
		c-4.418,0-8-3.582-8-8S122.524,324.025,126.942,324.025z"/>
	<path d="M285.071,103.62v81.074c0,4.418-3.582,8-8,8H90.576c-4.418,0-8-3.582-8-8V103.62H53.277H0v186.481h40.748v-59.316
		c0-4.418,3.582-8,8-8h270.151c4.418,0,8,3.582,8,8v59.316h40.748V103.62H314.37H285.071z M58.072,176.976H22.904
		c-4.418,0-8-3.582-8-8s3.582-8,8-8h35.168c4.418,0,8,3.582,8,8S62.49,176.976,58.072,176.976z M58.072,142.074H22.904
		c-4.418,0-8-3.582-8-8s3.582-8,8-8h35.168c4.418,0,8,3.582,8,8S62.49,142.074,58.072,142.074z M329.557,126.074h13.854
		c4.418,0,8,3.582,8,8s-3.582,8-8,8h-13.854c-4.418,0-8-3.582-8-8S325.139,126.074,329.557,126.074z M329.557,160.976h13.854
		c4.418,0,8,3.582,8,8s-3.582,8-8,8h-13.854c-4.418,0-8-3.582-8-8S325.139,160.976,329.557,160.976z"/>
</g>
<g>
</g>
<g>
</g>
<g>
</g>
<g>
</g>
<g>
</g>
<g>
</g>
<g>
</g>
<g>
</g>
<g>
</g>
<g>
</g>
<g>
</g>
<g>
</g>
<g>
</g>
<g>
</g>
<g>
</g>
</svg>
