<?xml version="1.0" standalone="no"?>
<!DOCTYPE svg PUBLIC "-//W3C//DTD SVG 20010904//EN"
 "http://www.w3.org/TR/2001/REC-SVG-20010904/DTD/svg10.dtd">
<svg fill="#d5d5d5" version="1.0" xmlns="http://www.w3.org/2000/svg"
 width="512.000000pt" height="512.000000pt" viewBox="0 0 512.000000 512.000000"
 preserveAspectRatio="xMidYMid meet">

<g transform="translate(-18.000000,532.000000) scale(0.108000,-0.108000)"
stroke="none">
<path d="M2542 4823 c-5 -10 -73 -218 -151 -463 -78 -245 -150 -470 -161 -500
-10 -30 -53 -163 -95 -295 -42 -132 -93 -289 -113 -350 l-37 -110 -900 -3
c-494 -1 -903 -6 -907 -10 -4 -4 128 -106 294 -227 382 -279 912 -674 1046
-778 100 -78 104 -82 99 -114 -5 -28 -70 -241 -127 -413 -10 -30 -34 -104 -53
-165 -19 -60 -74 -231 -122 -380 -48 -148 -109 -340 -136 -425 -27 -85 -61
-190 -75 -233 -14 -44 -23 -81 -20 -84 3 -3 20 5 38 18 46 33 586 426 738 537
422 310 681 492 702 492 8 0 70 -42 139 -93 198 -148 1132 -828 1271 -927 27
-18 50 -31 52 -29 2 2 -12 54 -31 114 -83 260 -205 642 -213 665 -10 28 -149
462 -234 731 -31 96 -56 187 -56 202 0 20 15 38 68 80 133 106 364 279 757
567 585 429 615 451 615 461 0 5 -378 9 -899 9 -707 0 -901 3 -909 13 -5 6
-47 127 -92 267 -219 686 -272 848 -285 885 -7 22 -52 160 -100 308 -47 147
-88 267 -90 267 -2 0 -8 -8 -13 -17z"/>
</g>
</svg>
