<?xml version="1.0" encoding="utf-8"?>
<svg viewBox="145.485 58.529 234.114 232.441" xmlns="http://www.w3.org/2000/svg">
  <g fill="none" fill-rule="evenodd" transform="matrix(5.576659, 0, 0, 5.576659, 571.855896, 117.285103)" style="">
    <path fill="lightgrey" fill-opacity=".8" d="M -54.14 20.304 L -54.14 16.15 L -57.895 16.15 L -57.895 20.304 L -54.14 20.304 Z M -54.652 11.684 C -50.982 10.347 -48.934 8.725 -48.934 5.539 C -48.934 2.267 -51.294 0.304 -55.022 0.304 C -57.611 0.304 -59.659 1.129 -61.366 2.352 L -60.882 5.652 C -59.261 4.401 -57.412 3.49 -55.392 3.49 C -53.685 3.49 -52.547 4.344 -52.547 5.795 C -52.547 7.388 -53.627 8.27 -56.359 9.237 L -57.241 9.579 L -56.899 14.102 L -54.823 13.647 L -54.652 11.684 Z" />
    <rect width="38" height="38" x="-74.366" y="-8.696" stroke="lightgrey"  stroke-width="2" rx="5"/>
    <circle cx="-68.366" cy="-2.696" r="2" fill="lightgrey"/>
    <circle cx="-68.366" cy="23.304" r="2" fill="lightgrey"/>
    <circle cx="-42.366" cy="-2.696" r="2" fill="lightgrey"/>
    <circle cx="-42.366" cy="23.304" r="2" fill="lightgrey"/>
  </g>
</svg>