<?xml version="1.0" encoding="utf-8"?>
<svg fill="#ed4245" viewBox="6.018 11.123 71.983 72.185" xmlns="http://www.w3.org/2000/svg">
    <mask id="13f0f5ef-7beb-4c84-8323-0532f4008154">
        <path fill="white" d="M 42.363 11.915 L 42.363 11.915 C 61.587 11.915 77.171 27.5 77.171 46.724 L 77.171 46.724 C 77.171 65.948 61.587 81.532 42.363 81.532 L 42.363 81.532 C 23.139 81.532 7.555 65.948 7.555 46.724 L 7.555 46.724 C 7.555 27.5 23.139 11.915 42.363 11.915 Z"/>
        <path fill="black" d="M 24.959 38.022 L 59.767 38.022 C 64.573 38.022 68.469 41.918 68.469 46.724 L 68.469 46.724 C 68.469 51.53 64.573 55.426 59.767 55.426 L 24.959 55.426 C 20.153 55.426 16.257 51.53 16.257 46.724 L 16.257 46.724 C 16.257 41.918 20.153 38.022 24.959 38.022 Z"/>
    </mask>
    <path fill="hsl(359, calc(var(--saturation-factor, 1) * 82.6%), 59.4%)" mask="url(#13f0f5ef-7beb-4c84-8323-0532f4008154)" d="M -44.658 -22.893 L 129.384 -22.893 L 129.384 81.532 L -44.658 81.532 L -44.658 -22.893 Z" style=""/>
</svg>